<mxfile host="Electron" modified="2023-04-13T17:44:02.148Z" agent="Mozilla/5.0 (Windows NT 10.0; Win64; x64) AppleWebKit/537.36 (KHTML, like Gecko) draw.io/21.1.2 Chrome/106.0.5249.199 Electron/21.4.3 Safari/537.36" etag="eH56W9PgySvxRBa2mQqI" version="21.1.2" type="device">
  <diagram id="C5RBs43oDa-KdzZeNtuy" name="Page-1">
    <mxGraphModel dx="1114" dy="709" grid="1" gridSize="10" guides="1" tooltips="1" connect="1" arrows="1" fold="1" page="1" pageScale="1" pageWidth="827" pageHeight="1169" math="0" shadow="0">
      <root>
        <mxCell id="WIyWlLk6GJQsqaUBKTNV-0" />
        <mxCell id="WIyWlLk6GJQsqaUBKTNV-1" parent="WIyWlLk6GJQsqaUBKTNV-0" />
        <mxCell id="3Ss1DaIvFvE13Hr1E3sc-0" value="book" style="shape=table;startSize=30;container=1;collapsible=1;childLayout=tableLayout;fixedRows=1;rowLines=0;fontStyle=1;align=center;resizeLast=1;labelBackgroundColor=none;fillColor=#B2C9AB;strokeColor=#788AA3;fontColor=#46495D;rounded=1;" parent="WIyWlLk6GJQsqaUBKTNV-1" vertex="1">
          <mxGeometry x="50" y="375" width="240" height="295" as="geometry" />
        </mxCell>
        <mxCell id="3Ss1DaIvFvE13Hr1E3sc-94" value="" style="shape=tableRow;horizontal=0;startSize=0;swimlaneHead=0;swimlaneBody=0;fillColor=none;collapsible=0;dropTarget=0;points=[[0,0.5],[1,0.5]];portConstraint=eastwest;top=0;left=0;right=0;bottom=1;rounded=1;strokeColor=#788AA3;fontColor=#46495D;" parent="3Ss1DaIvFvE13Hr1E3sc-0" vertex="1">
          <mxGeometry y="30" width="240" height="30" as="geometry" />
        </mxCell>
        <mxCell id="3Ss1DaIvFvE13Hr1E3sc-95" value="PK" style="shape=partialRectangle;connectable=0;fillColor=none;top=0;left=0;bottom=0;right=0;fontStyle=1;overflow=hidden;rounded=1;strokeColor=#788AA3;fontColor=#46495D;" parent="3Ss1DaIvFvE13Hr1E3sc-94" vertex="1">
          <mxGeometry width="30" height="30" as="geometry">
            <mxRectangle width="30" height="30" as="alternateBounds" />
          </mxGeometry>
        </mxCell>
        <mxCell id="3Ss1DaIvFvE13Hr1E3sc-96" value="id SERIAL NOT NULL" style="shape=partialRectangle;connectable=0;fillColor=none;top=0;left=0;bottom=0;right=0;align=left;spacingLeft=6;fontStyle=5;overflow=hidden;rounded=1;strokeColor=#788AA3;fontColor=#46495D;" parent="3Ss1DaIvFvE13Hr1E3sc-94" vertex="1">
          <mxGeometry x="30" width="210" height="30" as="geometry">
            <mxRectangle width="210" height="30" as="alternateBounds" />
          </mxGeometry>
        </mxCell>
        <mxCell id="3Ss1DaIvFvE13Hr1E3sc-127" value="" style="shape=tableRow;horizontal=0;startSize=0;swimlaneHead=0;swimlaneBody=0;fillColor=none;collapsible=0;dropTarget=0;points=[[0,0.5],[1,0.5]];portConstraint=eastwest;top=0;left=0;right=0;bottom=0;rounded=1;strokeColor=#788AA3;fontColor=#46495D;" parent="3Ss1DaIvFvE13Hr1E3sc-0" vertex="1">
          <mxGeometry y="60" width="240" height="30" as="geometry" />
        </mxCell>
        <mxCell id="3Ss1DaIvFvE13Hr1E3sc-128" value="FK" style="shape=partialRectangle;connectable=0;fillColor=none;top=0;left=0;bottom=0;right=0;fontStyle=0;overflow=hidden;rounded=1;strokeColor=#788AA3;fontColor=#46495D;" parent="3Ss1DaIvFvE13Hr1E3sc-127" vertex="1">
          <mxGeometry width="30" height="30" as="geometry">
            <mxRectangle width="30" height="30" as="alternateBounds" />
          </mxGeometry>
        </mxCell>
        <mxCell id="3Ss1DaIvFvE13Hr1E3sc-129" value="author_id INT NOT NULL" style="shape=partialRectangle;connectable=0;fillColor=none;top=0;left=0;bottom=0;right=0;align=left;spacingLeft=6;fontStyle=0;overflow=hidden;rounded=1;strokeColor=#788AA3;fontColor=#46495D;" parent="3Ss1DaIvFvE13Hr1E3sc-127" vertex="1">
          <mxGeometry x="30" width="210" height="30" as="geometry">
            <mxRectangle width="210" height="30" as="alternateBounds" />
          </mxGeometry>
        </mxCell>
        <mxCell id="3Ss1DaIvFvE13Hr1E3sc-16" value="" style="shape=tableRow;horizontal=0;startSize=0;swimlaneHead=0;swimlaneBody=0;fillColor=none;collapsible=0;dropTarget=0;points=[[0,0.5],[1,0.5]];portConstraint=eastwest;strokeColor=#788AA3;top=0;left=0;right=0;bottom=0;labelBackgroundColor=none;fontColor=#46495D;rounded=1;" parent="3Ss1DaIvFvE13Hr1E3sc-0" vertex="1">
          <mxGeometry y="90" width="240" height="30" as="geometry" />
        </mxCell>
        <mxCell id="3Ss1DaIvFvE13Hr1E3sc-17" value="" style="shape=partialRectangle;overflow=hidden;connectable=0;fillColor=none;strokeColor=#788AA3;top=0;left=0;bottom=0;right=0;labelBackgroundColor=none;fontColor=#46495D;rounded=1;" parent="3Ss1DaIvFvE13Hr1E3sc-16" vertex="1">
          <mxGeometry width="30" height="30" as="geometry">
            <mxRectangle width="30" height="30" as="alternateBounds" />
          </mxGeometry>
        </mxCell>
        <mxCell id="3Ss1DaIvFvE13Hr1E3sc-18" value="published_date TIMESTAMP" style="shape=partialRectangle;overflow=hidden;connectable=0;fillColor=none;align=left;strokeColor=#788AA3;top=0;left=0;bottom=0;right=0;spacingLeft=6;labelBackgroundColor=none;fontColor=#46495D;rounded=1;" parent="3Ss1DaIvFvE13Hr1E3sc-16" vertex="1">
          <mxGeometry x="30" width="210" height="30" as="geometry">
            <mxRectangle width="210" height="30" as="alternateBounds" />
          </mxGeometry>
        </mxCell>
        <mxCell id="3Ss1DaIvFvE13Hr1E3sc-4" value="" style="shape=tableRow;horizontal=0;startSize=0;swimlaneHead=0;swimlaneBody=0;fillColor=none;collapsible=0;dropTarget=0;points=[[0,0.5],[1,0.5]];portConstraint=eastwest;strokeColor=#788AA3;top=0;left=0;right=0;bottom=0;labelBackgroundColor=none;fontColor=#46495D;rounded=1;" parent="3Ss1DaIvFvE13Hr1E3sc-0" vertex="1">
          <mxGeometry y="120" width="240" height="30" as="geometry" />
        </mxCell>
        <mxCell id="3Ss1DaIvFvE13Hr1E3sc-5" value="" style="shape=partialRectangle;overflow=hidden;connectable=0;fillColor=none;strokeColor=#788AA3;top=0;left=0;bottom=0;right=0;labelBackgroundColor=none;fontColor=#46495D;rounded=1;" parent="3Ss1DaIvFvE13Hr1E3sc-4" vertex="1">
          <mxGeometry width="30" height="30" as="geometry">
            <mxRectangle width="30" height="30" as="alternateBounds" />
          </mxGeometry>
        </mxCell>
        <mxCell id="3Ss1DaIvFvE13Hr1E3sc-6" value="title TEXT NOT NULL" style="shape=partialRectangle;overflow=hidden;connectable=0;fillColor=none;align=left;strokeColor=#788AA3;top=0;left=0;bottom=0;right=0;spacingLeft=6;labelBackgroundColor=none;fontColor=#46495D;rounded=1;" parent="3Ss1DaIvFvE13Hr1E3sc-4" vertex="1">
          <mxGeometry x="30" width="210" height="30" as="geometry">
            <mxRectangle width="210" height="30" as="alternateBounds" />
          </mxGeometry>
        </mxCell>
        <mxCell id="3Ss1DaIvFvE13Hr1E3sc-10" value="" style="shape=tableRow;horizontal=0;startSize=0;swimlaneHead=0;swimlaneBody=0;fillColor=none;collapsible=0;dropTarget=0;points=[[0,0.5],[1,0.5]];portConstraint=eastwest;strokeColor=#788AA3;top=0;left=0;right=0;bottom=0;labelBackgroundColor=none;fontColor=#46495D;rounded=1;" parent="3Ss1DaIvFvE13Hr1E3sc-0" vertex="1">
          <mxGeometry y="150" width="240" height="45" as="geometry" />
        </mxCell>
        <mxCell id="3Ss1DaIvFvE13Hr1E3sc-11" value="" style="shape=partialRectangle;overflow=hidden;connectable=0;fillColor=none;strokeColor=#788AA3;top=0;left=0;bottom=0;right=0;labelBackgroundColor=none;fontColor=#46495D;rounded=1;" parent="3Ss1DaIvFvE13Hr1E3sc-10" vertex="1">
          <mxGeometry width="30" height="45" as="geometry">
            <mxRectangle width="30" height="45" as="alternateBounds" />
          </mxGeometry>
        </mxCell>
        <mxCell id="3Ss1DaIvFvE13Hr1E3sc-12" value="description TEXT NOT NULL" style="shape=partialRectangle;overflow=hidden;connectable=0;fillColor=none;align=left;strokeColor=#788AA3;top=0;left=0;bottom=0;right=0;spacingLeft=6;labelBackgroundColor=none;fontColor=#46495D;rounded=1;" parent="3Ss1DaIvFvE13Hr1E3sc-10" vertex="1">
          <mxGeometry x="30" width="210" height="45" as="geometry">
            <mxRectangle width="210" height="45" as="alternateBounds" />
          </mxGeometry>
        </mxCell>
        <mxCell id="3Ss1DaIvFvE13Hr1E3sc-13" value="" style="shape=tableRow;horizontal=0;startSize=0;swimlaneHead=0;swimlaneBody=0;fillColor=none;collapsible=0;dropTarget=0;points=[[0,0.5],[1,0.5]];portConstraint=eastwest;strokeColor=#788AA3;top=0;left=0;right=0;bottom=0;labelBackgroundColor=none;fontColor=#46495D;rounded=1;" parent="3Ss1DaIvFvE13Hr1E3sc-0" vertex="1">
          <mxGeometry y="195" width="240" height="100" as="geometry" />
        </mxCell>
        <mxCell id="3Ss1DaIvFvE13Hr1E3sc-14" value="" style="shape=partialRectangle;overflow=hidden;connectable=0;fillColor=none;strokeColor=#788AA3;top=0;left=0;bottom=0;right=0;labelBackgroundColor=none;fontColor=#46495D;rounded=1;" parent="3Ss1DaIvFvE13Hr1E3sc-13" vertex="1">
          <mxGeometry width="30" height="100" as="geometry">
            <mxRectangle width="30" height="100" as="alternateBounds" />
          </mxGeometry>
        </mxCell>
        <mxCell id="3Ss1DaIvFvE13Hr1E3sc-15" value="cover_image_url TEXT NOT NULL" style="shape=partialRectangle;overflow=hidden;connectable=0;fillColor=none;align=left;strokeColor=#788AA3;top=0;left=0;bottom=0;right=0;spacingLeft=6;labelBackgroundColor=none;fontColor=#46495D;rounded=1;" parent="3Ss1DaIvFvE13Hr1E3sc-13" vertex="1">
          <mxGeometry x="30" width="210" height="100" as="geometry">
            <mxRectangle width="210" height="100" as="alternateBounds" />
          </mxGeometry>
        </mxCell>
        <mxCell id="3Ss1DaIvFvE13Hr1E3sc-19" value="author" style="shape=table;startSize=30;container=1;collapsible=1;childLayout=tableLayout;fixedRows=1;rowLines=0;fontStyle=1;align=center;resizeLast=1;labelBackgroundColor=none;fillColor=#B2C9AB;strokeColor=#788AA3;fontColor=#46495D;rounded=1;" parent="WIyWlLk6GJQsqaUBKTNV-1" vertex="1">
          <mxGeometry x="455" y="480" width="210" height="115" as="geometry" />
        </mxCell>
        <mxCell id="3Ss1DaIvFvE13Hr1E3sc-90" value="" style="shape=tableRow;horizontal=0;startSize=0;swimlaneHead=0;swimlaneBody=0;fillColor=none;collapsible=0;dropTarget=0;points=[[0,0.5],[1,0.5]];portConstraint=eastwest;top=0;left=0;right=0;bottom=1;rounded=1;strokeColor=#788AA3;fontColor=#46495D;" parent="3Ss1DaIvFvE13Hr1E3sc-19" vertex="1">
          <mxGeometry y="30" width="210" height="30" as="geometry" />
        </mxCell>
        <mxCell id="3Ss1DaIvFvE13Hr1E3sc-91" value="PK" style="shape=partialRectangle;connectable=0;fillColor=none;top=0;left=0;bottom=0;right=0;fontStyle=1;overflow=hidden;rounded=1;strokeColor=#788AA3;fontColor=#46495D;" parent="3Ss1DaIvFvE13Hr1E3sc-90" vertex="1">
          <mxGeometry width="30" height="30" as="geometry">
            <mxRectangle width="30" height="30" as="alternateBounds" />
          </mxGeometry>
        </mxCell>
        <mxCell id="3Ss1DaIvFvE13Hr1E3sc-92" value="id SERIAL NOT NULL" style="shape=partialRectangle;connectable=0;fillColor=none;top=0;left=0;bottom=0;right=0;align=left;spacingLeft=6;fontStyle=5;overflow=hidden;rounded=1;strokeColor=#788AA3;fontColor=#46495D;" parent="3Ss1DaIvFvE13Hr1E3sc-90" vertex="1">
          <mxGeometry x="30" width="180" height="30" as="geometry">
            <mxRectangle width="180" height="30" as="alternateBounds" />
          </mxGeometry>
        </mxCell>
        <mxCell id="3Ss1DaIvFvE13Hr1E3sc-23" value="" style="shape=tableRow;horizontal=0;startSize=0;swimlaneHead=0;swimlaneBody=0;fillColor=none;collapsible=0;dropTarget=0;points=[[0,0.5],[1,0.5]];portConstraint=eastwest;strokeColor=#788AA3;top=0;left=0;right=0;bottom=0;labelBackgroundColor=none;fontColor=#46495D;rounded=1;" parent="3Ss1DaIvFvE13Hr1E3sc-19" vertex="1">
          <mxGeometry y="60" width="210" height="55" as="geometry" />
        </mxCell>
        <mxCell id="3Ss1DaIvFvE13Hr1E3sc-24" value="" style="shape=partialRectangle;overflow=hidden;connectable=0;fillColor=none;strokeColor=#788AA3;top=0;left=0;bottom=0;right=0;labelBackgroundColor=none;fontColor=#46495D;rounded=1;" parent="3Ss1DaIvFvE13Hr1E3sc-23" vertex="1">
          <mxGeometry width="30" height="55" as="geometry">
            <mxRectangle width="30" height="55" as="alternateBounds" />
          </mxGeometry>
        </mxCell>
        <mxCell id="3Ss1DaIvFvE13Hr1E3sc-25" value="username TEXT NOT NULL" style="shape=partialRectangle;overflow=hidden;connectable=0;fillColor=none;align=left;strokeColor=#788AA3;top=0;left=0;bottom=0;right=0;spacingLeft=6;labelBackgroundColor=none;fontColor=#46495D;rounded=1;" parent="3Ss1DaIvFvE13Hr1E3sc-23" vertex="1">
          <mxGeometry x="30" width="180" height="55" as="geometry">
            <mxRectangle width="180" height="55" as="alternateBounds" />
          </mxGeometry>
        </mxCell>
        <mxCell id="3Ss1DaIvFvE13Hr1E3sc-26" value="user" style="shape=table;startSize=30;container=1;collapsible=1;childLayout=tableLayout;fixedRows=1;rowLines=0;fontStyle=1;align=center;resizeLast=1;labelBackgroundColor=none;fillColor=#B2C9AB;strokeColor=#788AA3;fontColor=#46495D;rounded=1;" parent="WIyWlLk6GJQsqaUBKTNV-1" vertex="1">
          <mxGeometry x="80" y="60" width="240" height="220" as="geometry" />
        </mxCell>
        <mxCell id="3Ss1DaIvFvE13Hr1E3sc-156" value="" style="shape=tableRow;horizontal=0;startSize=0;swimlaneHead=0;swimlaneBody=0;fillColor=none;collapsible=0;dropTarget=0;points=[[0,0.5],[1,0.5]];portConstraint=eastwest;top=0;left=0;right=0;bottom=1;rounded=1;strokeColor=#788AA3;fontColor=#46495D;" parent="3Ss1DaIvFvE13Hr1E3sc-26" vertex="1">
          <mxGeometry y="30" width="240" height="30" as="geometry" />
        </mxCell>
        <mxCell id="3Ss1DaIvFvE13Hr1E3sc-157" value="PK" style="shape=partialRectangle;connectable=0;fillColor=none;top=0;left=0;bottom=0;right=0;fontStyle=1;overflow=hidden;rounded=1;strokeColor=#788AA3;fontColor=#46495D;" parent="3Ss1DaIvFvE13Hr1E3sc-156" vertex="1">
          <mxGeometry width="30" height="30" as="geometry">
            <mxRectangle width="30" height="30" as="alternateBounds" />
          </mxGeometry>
        </mxCell>
        <mxCell id="3Ss1DaIvFvE13Hr1E3sc-158" value="id SERIAL NOT NULL" style="shape=partialRectangle;connectable=0;fillColor=none;top=0;left=0;bottom=0;right=0;align=left;spacingLeft=6;fontStyle=5;overflow=hidden;rounded=1;strokeColor=#788AA3;fontColor=#46495D;" parent="3Ss1DaIvFvE13Hr1E3sc-156" vertex="1">
          <mxGeometry x="30" width="210" height="30" as="geometry">
            <mxRectangle width="210" height="30" as="alternateBounds" />
          </mxGeometry>
        </mxCell>
        <mxCell id="3Ss1DaIvFvE13Hr1E3sc-30" value="" style="shape=tableRow;horizontal=0;startSize=0;swimlaneHead=0;swimlaneBody=0;fillColor=none;collapsible=0;dropTarget=0;points=[[0,0.5],[1,0.5]];portConstraint=eastwest;strokeColor=#788AA3;top=0;left=0;right=0;bottom=0;labelBackgroundColor=none;fontColor=#46495D;rounded=1;" parent="3Ss1DaIvFvE13Hr1E3sc-26" vertex="1">
          <mxGeometry y="60" width="240" height="30" as="geometry" />
        </mxCell>
        <mxCell id="3Ss1DaIvFvE13Hr1E3sc-31" value="" style="shape=partialRectangle;overflow=hidden;connectable=0;fillColor=none;strokeColor=#788AA3;top=0;left=0;bottom=0;right=0;labelBackgroundColor=none;fontColor=#46495D;rounded=1;" parent="3Ss1DaIvFvE13Hr1E3sc-30" vertex="1">
          <mxGeometry width="30" height="30" as="geometry">
            <mxRectangle width="30" height="30" as="alternateBounds" />
          </mxGeometry>
        </mxCell>
        <mxCell id="3Ss1DaIvFvE13Hr1E3sc-32" value="username TEXT NOT NULL" style="shape=partialRectangle;overflow=hidden;connectable=0;fillColor=none;align=left;strokeColor=#788AA3;top=0;left=0;bottom=0;right=0;spacingLeft=6;labelBackgroundColor=none;fontColor=#46495D;rounded=1;" parent="3Ss1DaIvFvE13Hr1E3sc-30" vertex="1">
          <mxGeometry x="30" width="210" height="30" as="geometry">
            <mxRectangle width="210" height="30" as="alternateBounds" />
          </mxGeometry>
        </mxCell>
        <mxCell id="3Ss1DaIvFvE13Hr1E3sc-33" value="" style="shape=tableRow;horizontal=0;startSize=0;swimlaneHead=0;swimlaneBody=0;fillColor=none;collapsible=0;dropTarget=0;points=[[0,0.5],[1,0.5]];portConstraint=eastwest;strokeColor=#788AA3;top=0;left=0;right=0;bottom=0;labelBackgroundColor=none;fontColor=#46495D;rounded=1;" parent="3Ss1DaIvFvE13Hr1E3sc-26" vertex="1">
          <mxGeometry y="90" width="240" height="30" as="geometry" />
        </mxCell>
        <mxCell id="3Ss1DaIvFvE13Hr1E3sc-34" value="" style="shape=partialRectangle;overflow=hidden;connectable=0;fillColor=none;strokeColor=#788AA3;top=0;left=0;bottom=0;right=0;labelBackgroundColor=none;fontColor=#46495D;rounded=1;" parent="3Ss1DaIvFvE13Hr1E3sc-33" vertex="1">
          <mxGeometry width="30" height="30" as="geometry">
            <mxRectangle width="30" height="30" as="alternateBounds" />
          </mxGeometry>
        </mxCell>
        <mxCell id="3Ss1DaIvFvE13Hr1E3sc-35" value="email TEXT NOT NULL" style="shape=partialRectangle;overflow=hidden;connectable=0;fillColor=none;align=left;strokeColor=#788AA3;top=0;left=0;bottom=0;right=0;spacingLeft=6;labelBackgroundColor=none;fontColor=#46495D;rounded=1;" parent="3Ss1DaIvFvE13Hr1E3sc-33" vertex="1">
          <mxGeometry x="30" width="210" height="30" as="geometry">
            <mxRectangle width="210" height="30" as="alternateBounds" />
          </mxGeometry>
        </mxCell>
        <mxCell id="3Ss1DaIvFvE13Hr1E3sc-36" value="" style="shape=tableRow;horizontal=0;startSize=0;swimlaneHead=0;swimlaneBody=0;fillColor=none;collapsible=0;dropTarget=0;points=[[0,0.5],[1,0.5]];portConstraint=eastwest;strokeColor=#788AA3;top=0;left=0;right=0;bottom=0;labelBackgroundColor=none;fontColor=#46495D;rounded=1;" parent="3Ss1DaIvFvE13Hr1E3sc-26" vertex="1">
          <mxGeometry y="120" width="240" height="30" as="geometry" />
        </mxCell>
        <mxCell id="3Ss1DaIvFvE13Hr1E3sc-37" value="" style="shape=partialRectangle;overflow=hidden;connectable=0;fillColor=none;strokeColor=#788AA3;top=0;left=0;bottom=0;right=0;labelBackgroundColor=none;fontColor=#46495D;rounded=1;" parent="3Ss1DaIvFvE13Hr1E3sc-36" vertex="1">
          <mxGeometry width="30" height="30" as="geometry">
            <mxRectangle width="30" height="30" as="alternateBounds" />
          </mxGeometry>
        </mxCell>
        <mxCell id="3Ss1DaIvFvE13Hr1E3sc-38" value="phone_number TEXT NOT NULL" style="shape=partialRectangle;overflow=hidden;connectable=0;fillColor=none;align=left;strokeColor=#788AA3;top=0;left=0;bottom=0;right=0;spacingLeft=6;labelBackgroundColor=none;fontColor=#46495D;rounded=1;" parent="3Ss1DaIvFvE13Hr1E3sc-36" vertex="1">
          <mxGeometry x="30" width="210" height="30" as="geometry">
            <mxRectangle width="210" height="30" as="alternateBounds" />
          </mxGeometry>
        </mxCell>
        <mxCell id="3Ss1DaIvFvE13Hr1E3sc-39" value="" style="shape=tableRow;horizontal=0;startSize=0;swimlaneHead=0;swimlaneBody=0;fillColor=none;collapsible=0;dropTarget=0;points=[[0,0.5],[1,0.5]];portConstraint=eastwest;strokeColor=#788AA3;top=0;left=0;right=0;bottom=0;labelBackgroundColor=none;fontColor=#46495D;rounded=1;" parent="3Ss1DaIvFvE13Hr1E3sc-26" vertex="1">
          <mxGeometry y="150" width="240" height="30" as="geometry" />
        </mxCell>
        <mxCell id="3Ss1DaIvFvE13Hr1E3sc-40" value="" style="shape=partialRectangle;overflow=hidden;connectable=0;fillColor=none;strokeColor=#788AA3;top=0;left=0;bottom=0;right=0;labelBackgroundColor=none;fontColor=#46495D;rounded=1;" parent="3Ss1DaIvFvE13Hr1E3sc-39" vertex="1">
          <mxGeometry width="30" height="30" as="geometry">
            <mxRectangle width="30" height="30" as="alternateBounds" />
          </mxGeometry>
        </mxCell>
        <mxCell id="3Ss1DaIvFvE13Hr1E3sc-41" value="home_address TEXT NOT NULL" style="shape=partialRectangle;overflow=hidden;connectable=0;fillColor=none;align=left;strokeColor=#788AA3;top=0;left=0;bottom=0;right=0;spacingLeft=6;labelBackgroundColor=none;fontColor=#46495D;rounded=1;" parent="3Ss1DaIvFvE13Hr1E3sc-39" vertex="1">
          <mxGeometry x="30" width="210" height="30" as="geometry">
            <mxRectangle width="210" height="30" as="alternateBounds" />
          </mxGeometry>
        </mxCell>
        <mxCell id="3Ss1DaIvFvE13Hr1E3sc-42" value="" style="shape=tableRow;horizontal=0;startSize=0;swimlaneHead=0;swimlaneBody=0;fillColor=none;collapsible=0;dropTarget=0;points=[[0,0.5],[1,0.5]];portConstraint=eastwest;strokeColor=#788AA3;top=0;left=0;right=0;bottom=0;labelBackgroundColor=none;fontColor=#46495D;rounded=1;" parent="3Ss1DaIvFvE13Hr1E3sc-26" vertex="1">
          <mxGeometry y="180" width="240" height="40" as="geometry" />
        </mxCell>
        <mxCell id="3Ss1DaIvFvE13Hr1E3sc-43" value="" style="shape=partialRectangle;overflow=hidden;connectable=0;fillColor=none;strokeColor=#788AA3;top=0;left=0;bottom=0;right=0;labelBackgroundColor=none;fontColor=#46495D;rounded=1;" parent="3Ss1DaIvFvE13Hr1E3sc-42" vertex="1">
          <mxGeometry width="30" height="40" as="geometry">
            <mxRectangle width="30" height="40" as="alternateBounds" />
          </mxGeometry>
        </mxCell>
        <mxCell id="3Ss1DaIvFvE13Hr1E3sc-44" value="fee FLOAT NOT NULL DEFAULT 0" style="shape=partialRectangle;overflow=hidden;connectable=0;fillColor=none;align=left;strokeColor=#788AA3;top=0;left=0;bottom=0;right=0;spacingLeft=6;labelBackgroundColor=none;fontColor=#46495D;rounded=1;" parent="3Ss1DaIvFvE13Hr1E3sc-42" vertex="1">
          <mxGeometry x="30" width="210" height="40" as="geometry">
            <mxRectangle width="210" height="40" as="alternateBounds" />
          </mxGeometry>
        </mxCell>
        <mxCell id="3Ss1DaIvFvE13Hr1E3sc-45" value="reservation" style="shape=table;startSize=30;container=1;collapsible=1;childLayout=tableLayout;fixedRows=1;rowLines=0;fontStyle=1;align=center;resizeLast=1;labelBackgroundColor=none;fillColor=#B2C9AB;strokeColor=#788AA3;fontColor=#46495D;rounded=1;" parent="WIyWlLk6GJQsqaUBKTNV-1" vertex="1">
          <mxGeometry x="440" y="130" width="240" height="180" as="geometry" />
        </mxCell>
        <mxCell id="3Ss1DaIvFvE13Hr1E3sc-137" value="" style="shape=tableRow;horizontal=0;startSize=0;swimlaneHead=0;swimlaneBody=0;fillColor=none;collapsible=0;dropTarget=0;points=[[0,0.5],[1,0.5]];portConstraint=eastwest;top=0;left=0;right=0;bottom=1;rounded=1;strokeColor=#788AA3;fontColor=#46495D;" parent="3Ss1DaIvFvE13Hr1E3sc-45" vertex="1">
          <mxGeometry y="30" width="240" height="30" as="geometry" />
        </mxCell>
        <mxCell id="3Ss1DaIvFvE13Hr1E3sc-138" value="PK" style="shape=partialRectangle;connectable=0;fillColor=none;top=0;left=0;bottom=0;right=0;fontStyle=1;overflow=hidden;rounded=1;strokeColor=#788AA3;fontColor=#46495D;" parent="3Ss1DaIvFvE13Hr1E3sc-137" vertex="1">
          <mxGeometry width="30" height="30" as="geometry">
            <mxRectangle width="30" height="30" as="alternateBounds" />
          </mxGeometry>
        </mxCell>
        <mxCell id="3Ss1DaIvFvE13Hr1E3sc-139" value="id SERIAL NOT NULL" style="shape=partialRectangle;connectable=0;fillColor=none;top=0;left=0;bottom=0;right=0;align=left;spacingLeft=6;fontStyle=5;overflow=hidden;rounded=1;strokeColor=#788AA3;fontColor=#46495D;" parent="3Ss1DaIvFvE13Hr1E3sc-137" vertex="1">
          <mxGeometry x="30" width="210" height="30" as="geometry">
            <mxRectangle width="210" height="30" as="alternateBounds" />
          </mxGeometry>
        </mxCell>
        <mxCell id="3Ss1DaIvFvE13Hr1E3sc-133" value="" style="shape=tableRow;horizontal=0;startSize=0;swimlaneHead=0;swimlaneBody=0;fillColor=none;collapsible=0;dropTarget=0;points=[[0,0.5],[1,0.5]];portConstraint=eastwest;top=0;left=0;right=0;bottom=0;rounded=1;strokeColor=#788AA3;fontColor=#46495D;" parent="3Ss1DaIvFvE13Hr1E3sc-45" vertex="1">
          <mxGeometry y="60" width="240" height="30" as="geometry" />
        </mxCell>
        <mxCell id="3Ss1DaIvFvE13Hr1E3sc-134" value="FK" style="shape=partialRectangle;connectable=0;fillColor=none;top=0;left=0;bottom=0;right=0;fontStyle=0;overflow=hidden;rounded=1;strokeColor=#788AA3;fontColor=#46495D;" parent="3Ss1DaIvFvE13Hr1E3sc-133" vertex="1">
          <mxGeometry width="30" height="30" as="geometry">
            <mxRectangle width="30" height="30" as="alternateBounds" />
          </mxGeometry>
        </mxCell>
        <mxCell id="3Ss1DaIvFvE13Hr1E3sc-135" value="book_id INT NOT NULL" style="shape=partialRectangle;connectable=0;fillColor=none;top=0;left=0;bottom=0;right=0;align=left;spacingLeft=6;fontStyle=0;overflow=hidden;rounded=1;strokeColor=#788AA3;fontColor=#46495D;" parent="3Ss1DaIvFvE13Hr1E3sc-133" vertex="1">
          <mxGeometry x="30" width="210" height="30" as="geometry">
            <mxRectangle width="210" height="30" as="alternateBounds" />
          </mxGeometry>
        </mxCell>
        <mxCell id="3Ss1DaIvFvE13Hr1E3sc-149" value="" style="shape=tableRow;horizontal=0;startSize=0;swimlaneHead=0;swimlaneBody=0;fillColor=none;collapsible=0;dropTarget=0;points=[[0,0.5],[1,0.5]];portConstraint=eastwest;top=0;left=0;right=0;bottom=0;rounded=1;strokeColor=#788AA3;fontColor=#46495D;" parent="3Ss1DaIvFvE13Hr1E3sc-45" vertex="1">
          <mxGeometry y="90" width="240" height="30" as="geometry" />
        </mxCell>
        <mxCell id="3Ss1DaIvFvE13Hr1E3sc-150" value="FK" style="shape=partialRectangle;connectable=0;fillColor=none;top=0;left=0;bottom=0;right=0;fontStyle=0;overflow=hidden;rounded=1;strokeColor=#788AA3;fontColor=#46495D;" parent="3Ss1DaIvFvE13Hr1E3sc-149" vertex="1">
          <mxGeometry width="30" height="30" as="geometry">
            <mxRectangle width="30" height="30" as="alternateBounds" />
          </mxGeometry>
        </mxCell>
        <mxCell id="3Ss1DaIvFvE13Hr1E3sc-151" value="user_id INT NOT NULL" style="shape=partialRectangle;connectable=0;fillColor=none;top=0;left=0;bottom=0;right=0;align=left;spacingLeft=6;fontStyle=0;overflow=hidden;rounded=1;strokeColor=#788AA3;fontColor=#46495D;" parent="3Ss1DaIvFvE13Hr1E3sc-149" vertex="1">
          <mxGeometry x="30" width="210" height="30" as="geometry">
            <mxRectangle width="210" height="30" as="alternateBounds" />
          </mxGeometry>
        </mxCell>
        <mxCell id="3Ss1DaIvFvE13Hr1E3sc-55" value="" style="shape=tableRow;horizontal=0;startSize=0;swimlaneHead=0;swimlaneBody=0;fillColor=none;collapsible=0;dropTarget=0;points=[[0,0.5],[1,0.5]];portConstraint=eastwest;strokeColor=#788AA3;top=0;left=0;right=0;bottom=0;labelBackgroundColor=none;fontColor=#46495D;rounded=1;" parent="3Ss1DaIvFvE13Hr1E3sc-45" vertex="1">
          <mxGeometry y="120" width="240" height="30" as="geometry" />
        </mxCell>
        <mxCell id="3Ss1DaIvFvE13Hr1E3sc-56" value="" style="shape=partialRectangle;overflow=hidden;connectable=0;fillColor=none;strokeColor=#788AA3;top=0;left=0;bottom=0;right=0;labelBackgroundColor=none;fontColor=#46495D;rounded=1;" parent="3Ss1DaIvFvE13Hr1E3sc-55" vertex="1">
          <mxGeometry width="30" height="30" as="geometry">
            <mxRectangle width="30" height="30" as="alternateBounds" />
          </mxGeometry>
        </mxCell>
        <mxCell id="3Ss1DaIvFvE13Hr1E3sc-57" value="borrowed_date TIMESTAMP NULL" style="shape=partialRectangle;overflow=hidden;connectable=0;fillColor=none;align=left;strokeColor=#788AA3;top=0;left=0;bottom=0;right=0;spacingLeft=6;labelBackgroundColor=none;fontColor=#46495D;rounded=1;" parent="3Ss1DaIvFvE13Hr1E3sc-55" vertex="1">
          <mxGeometry x="30" width="210" height="30" as="geometry">
            <mxRectangle width="210" height="30" as="alternateBounds" />
          </mxGeometry>
        </mxCell>
        <mxCell id="3Ss1DaIvFvE13Hr1E3sc-58" value="" style="shape=tableRow;horizontal=0;startSize=0;swimlaneHead=0;swimlaneBody=0;fillColor=none;collapsible=0;dropTarget=0;points=[[0,0.5],[1,0.5]];portConstraint=eastwest;strokeColor=#788AA3;top=0;left=0;right=0;bottom=0;labelBackgroundColor=none;fontColor=#46495D;rounded=1;" parent="3Ss1DaIvFvE13Hr1E3sc-45" vertex="1">
          <mxGeometry y="150" width="240" height="30" as="geometry" />
        </mxCell>
        <mxCell id="3Ss1DaIvFvE13Hr1E3sc-59" value="" style="shape=partialRectangle;overflow=hidden;connectable=0;fillColor=none;strokeColor=#788AA3;top=0;left=0;bottom=0;right=0;labelBackgroundColor=none;fontColor=#46495D;rounded=1;" parent="3Ss1DaIvFvE13Hr1E3sc-58" vertex="1">
          <mxGeometry width="30" height="30" as="geometry">
            <mxRectangle width="30" height="30" as="alternateBounds" />
          </mxGeometry>
        </mxCell>
        <mxCell id="3Ss1DaIvFvE13Hr1E3sc-60" value="borrowed BOOLEAN NOT NULL" style="shape=partialRectangle;overflow=hidden;connectable=0;fillColor=none;align=left;strokeColor=#788AA3;top=0;left=0;bottom=0;right=0;spacingLeft=6;labelBackgroundColor=none;fontColor=#46495D;rounded=1;" parent="3Ss1DaIvFvE13Hr1E3sc-58" vertex="1">
          <mxGeometry x="30" width="210" height="30" as="geometry">
            <mxRectangle width="210" height="30" as="alternateBounds" />
          </mxGeometry>
        </mxCell>
        <mxCell id="3Ss1DaIvFvE13Hr1E3sc-130" style="edgeStyle=orthogonalEdgeStyle;rounded=1;orthogonalLoop=1;jettySize=auto;html=1;exitX=0;exitY=0.5;exitDx=0;exitDy=0;strokeColor=#788AA3;fontColor=#46495D;fillColor=#B2C9AB;" parent="WIyWlLk6GJQsqaUBKTNV-1" source="3Ss1DaIvFvE13Hr1E3sc-90" target="3Ss1DaIvFvE13Hr1E3sc-127" edge="1">
          <mxGeometry relative="1" as="geometry" />
        </mxCell>
        <mxCell id="3Ss1DaIvFvE13Hr1E3sc-154" style="edgeStyle=orthogonalEdgeStyle;rounded=1;orthogonalLoop=1;jettySize=auto;html=1;exitX=1;exitY=0.5;exitDx=0;exitDy=0;entryX=0;entryY=0.5;entryDx=0;entryDy=0;strokeColor=#788AA3;fontColor=#46495D;fillColor=#B2C9AB;" parent="WIyWlLk6GJQsqaUBKTNV-1" source="3Ss1DaIvFvE13Hr1E3sc-94" target="3Ss1DaIvFvE13Hr1E3sc-133" edge="1">
          <mxGeometry relative="1" as="geometry" />
        </mxCell>
        <mxCell id="3Ss1DaIvFvE13Hr1E3sc-159" style="edgeStyle=orthogonalEdgeStyle;rounded=1;orthogonalLoop=1;jettySize=auto;html=1;exitX=1;exitY=0.5;exitDx=0;exitDy=0;entryX=0;entryY=0.5;entryDx=0;entryDy=0;strokeColor=#788AA3;fontColor=#46495D;fillColor=#B2C9AB;" parent="WIyWlLk6GJQsqaUBKTNV-1" source="3Ss1DaIvFvE13Hr1E3sc-156" target="3Ss1DaIvFvE13Hr1E3sc-149" edge="1">
          <mxGeometry relative="1" as="geometry" />
        </mxCell>
        <mxCell id="vvDJO-zEejuYHdFN7woj-0" value="genre" style="shape=table;startSize=30;container=1;collapsible=1;childLayout=tableLayout;fixedRows=1;rowLines=0;fontStyle=1;align=center;resizeLast=1;labelBackgroundColor=none;fillColor=#B2C9AB;strokeColor=#788AA3;fontColor=#46495D;rounded=1;" vertex="1" parent="WIyWlLk6GJQsqaUBKTNV-1">
          <mxGeometry x="470" y="330" width="210" height="115" as="geometry" />
        </mxCell>
        <mxCell id="vvDJO-zEejuYHdFN7woj-1" value="" style="shape=tableRow;horizontal=0;startSize=0;swimlaneHead=0;swimlaneBody=0;fillColor=none;collapsible=0;dropTarget=0;points=[[0,0.5],[1,0.5]];portConstraint=eastwest;top=0;left=0;right=0;bottom=1;rounded=1;strokeColor=#788AA3;fontColor=#46495D;" vertex="1" parent="vvDJO-zEejuYHdFN7woj-0">
          <mxGeometry y="30" width="210" height="30" as="geometry" />
        </mxCell>
        <mxCell id="vvDJO-zEejuYHdFN7woj-2" value="PK" style="shape=partialRectangle;connectable=0;fillColor=none;top=0;left=0;bottom=0;right=0;fontStyle=1;overflow=hidden;rounded=1;strokeColor=#788AA3;fontColor=#46495D;" vertex="1" parent="vvDJO-zEejuYHdFN7woj-1">
          <mxGeometry width="30" height="30" as="geometry">
            <mxRectangle width="30" height="30" as="alternateBounds" />
          </mxGeometry>
        </mxCell>
        <mxCell id="vvDJO-zEejuYHdFN7woj-3" value="id SERIAL NOT NULL" style="shape=partialRectangle;connectable=0;fillColor=none;top=0;left=0;bottom=0;right=0;align=left;spacingLeft=6;fontStyle=5;overflow=hidden;rounded=1;strokeColor=#788AA3;fontColor=#46495D;" vertex="1" parent="vvDJO-zEejuYHdFN7woj-1">
          <mxGeometry x="30" width="180" height="30" as="geometry">
            <mxRectangle width="180" height="30" as="alternateBounds" />
          </mxGeometry>
        </mxCell>
        <mxCell id="vvDJO-zEejuYHdFN7woj-4" value="" style="shape=tableRow;horizontal=0;startSize=0;swimlaneHead=0;swimlaneBody=0;fillColor=none;collapsible=0;dropTarget=0;points=[[0,0.5],[1,0.5]];portConstraint=eastwest;strokeColor=#788AA3;top=0;left=0;right=0;bottom=0;labelBackgroundColor=none;fontColor=#46495D;rounded=1;" vertex="1" parent="vvDJO-zEejuYHdFN7woj-0">
          <mxGeometry y="60" width="210" height="55" as="geometry" />
        </mxCell>
        <mxCell id="vvDJO-zEejuYHdFN7woj-5" value="" style="shape=partialRectangle;overflow=hidden;connectable=0;fillColor=none;strokeColor=#788AA3;top=0;left=0;bottom=0;right=0;labelBackgroundColor=none;fontColor=#46495D;rounded=1;" vertex="1" parent="vvDJO-zEejuYHdFN7woj-4">
          <mxGeometry width="30" height="55" as="geometry">
            <mxRectangle width="30" height="55" as="alternateBounds" />
          </mxGeometry>
        </mxCell>
        <mxCell id="vvDJO-zEejuYHdFN7woj-6" value="username TEXT NOT NULL" style="shape=partialRectangle;overflow=hidden;connectable=0;fillColor=none;align=left;strokeColor=#788AA3;top=0;left=0;bottom=0;right=0;spacingLeft=6;labelBackgroundColor=none;fontColor=#46495D;rounded=1;" vertex="1" parent="vvDJO-zEejuYHdFN7woj-4">
          <mxGeometry x="30" width="180" height="55" as="geometry">
            <mxRectangle width="180" height="55" as="alternateBounds" />
          </mxGeometry>
        </mxCell>
        <mxCell id="vvDJO-zEejuYHdFN7woj-7" value="" style="shape=tableRow;horizontal=0;startSize=0;swimlaneHead=0;swimlaneBody=0;fillColor=none;collapsible=0;dropTarget=0;points=[[0,0.5],[1,0.5]];portConstraint=eastwest;top=0;left=0;right=0;bottom=0;rounded=1;strokeColor=#788AA3;fontColor=#46495D;" vertex="1" parent="WIyWlLk6GJQsqaUBKTNV-1">
          <mxGeometry x="60" y="570" width="240" height="50" as="geometry" />
        </mxCell>
        <mxCell id="vvDJO-zEejuYHdFN7woj-9" value="genre_id INT NOT NULL" style="shape=partialRectangle;connectable=0;fillColor=none;top=0;left=0;bottom=0;right=0;align=left;spacingLeft=6;fontStyle=0;overflow=hidden;rounded=1;strokeColor=#788AA3;fontColor=#46495D;" vertex="1" parent="WIyWlLk6GJQsqaUBKTNV-1">
          <mxGeometry x="80" y="570" width="210" height="30" as="geometry">
            <mxRectangle width="210" height="30" as="alternateBounds" />
          </mxGeometry>
        </mxCell>
        <mxCell id="vvDJO-zEejuYHdFN7woj-8" value="FK" style="shape=partialRectangle;connectable=0;fillColor=none;top=0;left=0;bottom=0;right=0;fontStyle=0;overflow=hidden;rounded=1;strokeColor=#788AA3;fontColor=#46495D;" vertex="1" parent="WIyWlLk6GJQsqaUBKTNV-1">
          <mxGeometry x="50" y="570" width="30" height="30" as="geometry">
            <mxRectangle width="30" height="30" as="alternateBounds" />
          </mxGeometry>
        </mxCell>
        <mxCell id="vvDJO-zEejuYHdFN7woj-12" style="edgeStyle=orthogonalEdgeStyle;rounded=1;orthogonalLoop=1;jettySize=auto;html=1;entryX=1.021;entryY=0.277;entryDx=0;entryDy=0;entryPerimeter=0;fillColor=#f5f5f5;strokeColor=#666666;" edge="1" parent="WIyWlLk6GJQsqaUBKTNV-1" source="vvDJO-zEejuYHdFN7woj-1" target="vvDJO-zEejuYHdFN7woj-7">
          <mxGeometry relative="1" as="geometry" />
        </mxCell>
      </root>
    </mxGraphModel>
  </diagram>
</mxfile>
